<?xml version="1.0" encoding="UTF-8" standalone="no"?>
<!-- Created with Inkscape (http://www.inkscape.org/) -->

<svg
   xmlns:dc="http://purl.org/dc/elements/1.1/"
   xmlns:cc="http://creativecommons.org/ns#"
   xmlns:rdf="http://www.w3.org/1999/02/22-rdf-syntax-ns#"
   xmlns:svg="http://www.w3.org/2000/svg"
   xmlns="http://www.w3.org/2000/svg"
   xmlns:sodipodi="http://sodipodi.sourceforge.net/DTD/sodipodi-0.dtd"
   xmlns:inkscape="http://www.inkscape.org/namespaces/inkscape"
   id="svg2"
   version="1.1"
   inkscape:version="0.91 r13725"
   xml:space="preserve"
   sodipodi:docname="github.svg"
   width="42.723751"
   height="41.718582"><metadata
     id="metadata8"><rdf:RDF><cc:Work
         rdf:about=""><dc:format>image/svg+xml</dc:format><dc:type
           rdf:resource="http://purl.org/dc/dcmitype/StillImage" /><dc:title></dc:title></cc:Work></rdf:RDF></metadata><defs
     id="defs6"><clipPath
       clipPathUnits="userSpaceOnUse"
       id="clipPath18"><path
         d="m 0,551.986 530.973,0 L 530.973,0 0,0 0,551.986 Z"
         id="path20"
         inkscape:connector-curvature="0" /></clipPath></defs><sodipodi:namedview
     pagecolor="#000000"
     bordercolor="#666666"
     borderopacity="1"
     objecttolerance="10"
     gridtolerance="10"
     guidetolerance="10"
     inkscape:pageopacity="0"
     inkscape:pageshadow="2"
     id="namedview4"
     showgrid="false"
     fit-margin-top="1"
     fit-margin-left="1"
     fit-margin-right="1"
     fit-margin-bottom="1"
     borderlayer="false"
     inkscape:zoom="5.4726025"
     inkscape:cx="20.30506"
     inkscape:cy="-11.839783"
     inkscape:window-x="0"
     inkscape:window-y="29"
     inkscape:window-maximized="1"
     inkscape:current-layer="g14"
     inkscape:window-width="1920"
     inkscape:window-height="1027" /><g
     id="g10"
     inkscape:groupmode="layer"
     inkscape:label="GitHub-Mark"
     transform="matrix(1.25,0,0,-1.25,-4.479825,685.50783)"><g
       id="g14"
       transform="translate(-186.06024,113.29001)"><g
         id="g22"
         transform="translate(206.7321,434.31625)"
         style="fill:#ffffff;fill-opacity:1"><path
           d="m 0,0 c -8.995,0 -16.288,-7.293 -16.288,-16.29 0,-7.197 4.667,-13.302 11.14,-15.457 0.815,-0.149 1.112,0.354 1.112,0.786 0,0.386 -0.014,1.411 -0.022,2.77 -4.531,-0.984 -5.487,2.184 -5.487,2.184 -0.741,1.881 -1.809,2.382 -1.809,2.382 -1.479,1.011 0.112,0.991 0.112,0.991 1.635,-0.116 2.495,-1.679 2.495,-1.679 1.453,-2.489 3.813,-1.77 4.741,-1.354 0.148,1.053 0.568,1.771 1.034,2.178 -3.617,0.411 -7.42,1.809 -7.42,8.051 0,1.778 0.635,3.232 1.677,4.371 -0.168,0.412 -0.727,2.068 0.159,4.311 0,0 1.368,0.438 4.48,-1.67 1.299,0.361 2.693,0.542 4.078,0.548 1.383,-0.006 2.777,-0.187 4.078,-0.548 3.11,2.108 4.475,1.67 4.475,1.67 0.889,-2.243 0.33,-3.899 0.162,-4.311 1.044,-1.139 1.675,-2.593 1.675,-4.371 0,-6.258 -3.809,-7.635 -7.438,-8.038 0.585,-0.503 1.106,-1.497 1.106,-3.017 0,-2.177 -0.02,-3.934 -0.02,-4.468 0,-0.436 0.293,-0.943 1.12,-0.784 6.468,2.159 11.131,8.26 11.131,15.455 C 16.291,-7.293 8.997,0 0,0"
           style="fill:#ffffff;fill-opacity:1;fill-rule:evenodd;stroke:none"
           id="path24"
           inkscape:connector-curvature="0" /></g></g></g></svg>